<svg xmlns="http://www.w3.org/2000/svg" width="34" height="22" viewBox="0 0 34 22"><defs><style>.a,.c{fill:none;}.b{fill:#333;}.c{stroke:#333;stroke-linecap:round;stroke-width:1.5px;}</style></defs><g transform="translate(-24 -739)"><rect class="a" width="32" height="22" transform="translate(26 739)"/><g transform="translate(-2.98 1.83)"><path class="b" d="M17.94,16.635,12.9,11.6A7.119,7.119,0,0,0,7.255,0,7.227,7.227,0,0,0,0,7.166a7.169,7.169,0,0,0,7.232,7.139A7.294,7.294,0,0,0,11.8,12.7l5.012,5a.784.784,0,0,0,1.1.026A.767.767,0,0,0,17.94,16.635ZM7.235,12.768a5.669,5.669,0,0,1-4.019-1.639,5.559,5.559,0,0,1,.012-7.935,5.738,5.738,0,0,1,8.043-.012,5.559,5.559,0,0,1-.012,7.935A5.7,5.7,0,0,1,7.235,12.768Z" transform="translate(29.166 738.17) rotate(7)"/><line class="c" x1="14" transform="translate(44.98 741.5)"/><line class="c" x1="14" transform="translate(44.98 750.345)"/><line class="c" x1="9" transform="translate(46.98 745.408)"/></g></g></svg>