<svg xmlns="http://www.w3.org/2000/svg" width="22" height="22" viewBox="0 0 22 22"><defs><style>.a,.b{fill:none;}.b{stroke:#000;stroke-linecap:round;stroke-linejoin:round;stroke-width:1.7px;}</style></defs><g transform="translate(-197 -253)"><rect class="a" width="22" height="22" transform="translate(197 253)"/><g transform="translate(195.5 252)"><path class="b" d="M27.9,5.7A2.7,2.7,0,1,1,25.2,3a2.7,2.7,0,0,1,2.7,2.7Z" transform="translate(-7.2 0)"/><path class="b" d="M9.9,16.2a2.7,2.7,0,1,1-2.7-2.7A2.7,2.7,0,0,1,9.9,16.2Z" transform="translate(0 -4.2)"/><path class="b" d="M27.9,26.7A2.7,2.7,0,1,1,25.2,24,2.7,2.7,0,0,1,27.9,26.7Z" transform="translate(-7.2 -8.4)"/><path class="b" d="M12.885,20.265l6.147,3.582" transform="translate(-3.354 -6.906)"/><path class="b" d="M19.023,9.765l-6.138,3.582" transform="translate(-3.354 -2.706)"/></g></g></svg>