<svg xmlns="http://www.w3.org/2000/svg" width="11.25" height="18" viewBox="0 0 11.25 18"><defs><style>.a{fill:#12b118;}</style></defs><path class="a" d="M9.563,0H1.688A1.688,1.688,0,0,0,0,1.688V16.313A1.688,1.688,0,0,0,1.688,18H9.563a1.688,1.688,0,0,0,1.688-1.687V1.688A1.688,1.688,0,0,0,9.563,0ZM5.625,16.875A1.125,1.125,0,1,1,6.75,15.75,1.124,1.124,0,0,1,5.625,16.875Zm3.938-3.8a.423.423,0,0,1-.422.422H2.109a.423.423,0,0,1-.422-.422V2.109a.423.423,0,0,1,.422-.422H9.141a.423.423,0,0,1,.422.422Z"/></svg>