<svg xmlns="http://www.w3.org/2000/svg" width="231.999" height="68.287" viewBox="0 0 231.999 68.287">
  <g id="Grupo_1573" data-name="Grupo 1573" transform="translate(-83.001 -44.713)">
    <g id="Grupo_972" data-name="Grupo 972" transform="translate(-33.496 -157.249)">
      <path id="Caminho_3712" data-name="Caminho 3712" d="M547.443,242.56c-.8,1.075-1.592,2.162-2.418,3.219a6.89,6.89,0,0,1-1.163,1.207,6.6,6.6,0,0,1-2.905,1.723,2.644,2.644,0,0,1-2.856-1.632c-.169-.617-.26-1.256-.442-1.868a.668.668,0,0,0-.481-.241c-.341.363-.641.766-.947,1.161a6.419,6.419,0,0,1-3.871,2.655,4.842,4.842,0,0,1-3.61-1.02c-1.477-1.014-1.959-3.032-2.183-5.019-.589.663-1.065,1.159-1.5,1.692a22.723,22.723,0,0,1-1.976,2.485,8.476,8.476,0,0,1-2.593,1.692c-1.8.7-3.253-.8-3.37-2.458-.043-.61-.015-1.224-.037-1.836a.4.4,0,0,0-.149-.3.357.357,0,0,0-.322.081c-.5.537-.957,1.123-1.486,1.63a14.555,14.555,0,0,1-3.048,2.7c-1.727.883-3.373.164-3.849-2.081a27.692,27.692,0,0,1-.3-2.758,4.986,4.986,0,0,0-.67.622,12.4,12.4,0,0,1-3.972,4,2.832,2.832,0,0,1-3.143.115,3.3,3.3,0,0,1-1.144-2.491,12.372,12.372,0,0,1,.027-1.535.6.6,0,0,0-.166-.449c-.089-.054-.344.036-.44.14a35.083,35.083,0,0,0-2.389,2.716,4.391,4.391,0,0,1-4.561,1.823,2.323,2.323,0,0,1-1.449-1.969c-.046-.771-.246-1.538-.244-2.306a8.1,8.1,0,0,1,.358-1.6c.117-.544.17-1.1.322-1.636.285-1,.571-2,.948-2.971.865-2.216,1.788-4.41,2.678-6.617a3.861,3.861,0,0,0,.127-.7c-.176,0-.323,0-.47,0-.815.033-1.632.118-2.445.09-1.029-.036-1.107.85-1.36,1.432-.646,1.487-1.081,3.067-1.739,4.548a40.061,40.061,0,0,1-2.05,3.81,14.917,14.917,0,0,1-3.268,4.122c-.163.135-.287.339-.469.427a9.554,9.554,0,0,1-1.028.368c.02-.467-.3-.927.139-1.4a29.044,29.044,0,0,0,3.054-3.515,25.677,25.677,0,0,0,2.047-4.129c.666-1.542,1.241-3.124,1.818-4.7a2.746,2.746,0,0,0,.268-1.473c-.1-.366-.643-.613-.988-.915-1.049-.918-1.77-3.847-.381-5.043a2.325,2.325,0,0,1,3.3.152,4.377,4.377,0,0,1,.576,1.928,9.155,9.155,0,0,1-.049,1.675c-.05,1.272.259,1.119,1.207,1.115a4.67,4.67,0,0,0,2.142-.639c1.587-.885,2.49-.549,3.83.4a2.292,2.292,0,0,1,.663,1.524,5.649,5.649,0,0,1-.519,3.428,31.308,31.308,0,0,0-1.179,3.055c-.221.529-.586,1-.856,1.508-.572,1.083-1.163,2.159-1.674,3.271-.591,1.286-1.121,2.6-1.633,3.922a.731.731,0,0,0,.191.671.813.813,0,0,0,.753.053,13.468,13.468,0,0,0,2.038-1.844,33.222,33.222,0,0,0,2.3-3.217c.8-1.248,1.576-2.523,2.272-3.834.514-.968.89-2.009,1.318-3.022a30.046,30.046,0,0,0,1.135-2.8,9.426,9.426,0,0,0,.4-2.436c.028-.863.649-1.02,1.2-1.06a2.829,2.829,0,0,1,2.475.7,3.29,3.29,0,0,1,.841,3.321c-.509,1.708-1.119,3.39-1.774,5.049a27.772,27.772,0,0,1-1.345,2.575c-.495.946-1.007,1.884-1.462,2.849a25.309,25.309,0,0,0-1.131,2.733c-.1.313.085.725.14,1.092.435-.122,1.012-.109,1.281-.39a25.141,25.141,0,0,0,2.833-3.335c1.143-1.715,2.111-3.548,3.132-5.343a17.87,17.87,0,0,0,1.222-2.38c.634-1.653,1.188-3.338,1.744-5.02.149-.45.02-1.122.3-1.375,1.042-.933,3.249-.194,3.821,1.073.82,1.817.131,3.424-.533,5.035-.618,1.5-1.313,2.971-2.013,4.435-.82,1.715-1.7,3.4-2.514,5.12a3.75,3.75,0,0,0-.4,1.5c0,.238.432.661.69.678a1.457,1.457,0,0,0,1.02-.456c.585-.641,1.08-1.365,1.608-2.057.338-.442.708-.865,1-1.336q1.192-1.92,2.324-3.877a25.4,25.4,0,0,0,1.21-2.331c.452-1.014.831-2.062,1.247-3.093.556-1.381,1.136-2.753,1.671-4.143.586-1.523,1.15-3.056,1.668-4.6.052-.155-.263-.622-.429-.632a23.569,23.569,0,0,0-7.307.561,2.559,2.559,0,0,0-1.9,2.176.72.72,0,0,1-.459.5.746.746,0,0,1-.9-.43,3.986,3.986,0,0,1-.2-3.491,3.72,3.72,0,0,1,3.45-2.252c1.975-.187,3.969-.185,5.956-.212.8-.011,1.612.174,2.415.152a1.207,1.207,0,0,0,.8-.591,9.813,9.813,0,0,0,1-3.867c.023-.2.408-.417.667-.518,1.045-.407,2.98-.05,3.519.88a5.7,5.7,0,0,1,.371,2.391,6.85,6.85,0,0,1-.2,1.246c-.095.746.221,1.016,1.018.974,1.1-.059,2.219.022,3.3-.139,1.547-.23,3.076-.6,4.6-.97a1.3,1.3,0,0,0,.674-.639c.331-.608.746-.791,1.33-.392a1.044,1.044,0,0,1,.282,1.692,5.378,5.378,0,0,1-2.8,1.488c-1.686.377-3.379.73-5.082,1.016a20.749,20.749,0,0,1-2.9.228,1.857,1.857,0,0,0-2.051,1.374,23.373,23.373,0,0,1-1.148,2.3c-.216.492-.249,1.062-.443,1.567-.3.783-.661,1.544-1.01,2.308-.371.811-.772,1.608-1.139,2.421-.605,1.342-1.21,2.684-1.787,4.039-.874,2.055-1.756,4.109-2.565,6.191a6.669,6.669,0,0,0-.274,1.876c-.016.207.09.557.229.611a.84.84,0,0,0,.729-.1,11.057,11.057,0,0,0,1.648-1.692,46.583,46.583,0,0,0,2.586-3.941,43.725,43.725,0,0,0,2.445-4.757,13.465,13.465,0,0,1,4.954-6.3,7.314,7.314,0,0,1,6.1-1.1,2.538,2.538,0,0,1,1.523,3.711c-.4.533-1.391.715-1.724.2-.258-.4-.135-1.052-.148-1.592a2.7,2.7,0,0,1,.131-.62c-.272-.042-.632-.215-.8-.1-.649.43-1.241.949-1.848,1.441a5.98,5.98,0,0,0-1.681,2.292c-.412.923-1.025,1.755-1.483,2.66-.4.8-.661,1.67-1.078,2.46a9.8,9.8,0,0,0-.812,4.219,7.875,7.875,0,0,0,.479,2.691,1.274,1.274,0,0,0,.987.7,2.123,2.123,0,0,0,1.391-.628,23.3,23.3,0,0,0,2.278-3.131c.875-1.468,1.63-3.01,2.4-4.535.913-1.8,1.882-3.578,2.654-5.438a30.675,30.675,0,0,0,.98-3.719.811.811,0,0,1,.435-.52,4.543,4.543,0,0,1,1.71-.253A2.978,2.978,0,0,1,547,232.512c-.939,2.455-2.007,4.865-3.1,7.26-.725,1.592-1.6,3.116-2.369,4.687a3.546,3.546,0,0,0-.309,1.216c-.022.238.078.637.237.707a.957.957,0,0,0,.846-.066,16.484,16.484,0,0,0,2.067-2.034,41.081,41.081,0,0,0,2.671-3.684c.778-1.221,1.42-2.53,2.11-3.806.519-.96,1.013-1.933,1.53-2.894a14.877,14.877,0,0,0,1.181-2.218,2.491,2.491,0,0,0-.291-1.457c-.828-2.118-.028-4.719,2.3-5.15a3.917,3.917,0,0,1,1.851.29c.607.206.824,1.591.473,2.275a15.011,15.011,0,0,0-.885,1.986,1.243,1.243,0,0,0,.178.868,62.9,62.9,0,0,1,3.22,5.783,15.991,15.991,0,0,1,.587,4.065,2.636,2.636,0,0,0,.218.568c.159-.085.373-.13.467-.262.855-1.184,1.688-2.384,2.531-3.577a5.826,5.826,0,0,1,.855-1.128c.2-.17.6-.1.914-.14.018.41.2.914.026,1.215a42.663,42.663,0,0,1-2.53,3.97,38.419,38.419,0,0,1-3.081,3.706,13.71,13.71,0,0,1-6.291,3.961A3.658,3.658,0,0,1,548.73,248a5.9,5.9,0,0,1-1.186-2.83,9.892,9.892,0,0,1,.106-2.521Zm.454-.656.127.1c.141-.1.279-.2.425-.291a12.309,12.309,0,0,1,1.533-.909c.713-.3,1.763.047,1.914.651.09.357.023,1.022-.187,1.129a2.81,2.81,0,0,1-1.611.256c-.4-.061-.629-.167-.828.271a3.524,3.524,0,0,0,.111,3.326,1.674,1.674,0,0,0,2.036.652,6.016,6.016,0,0,0,2.77-3.134c.9-1.976.635-4.119.365-6.177a19.764,19.764,0,0,0-1.194-3.8,1.553,1.553,0,0,0-.531-.587c-.041-.033-.3.1-.361.211-.579,1.078-1.13,2.171-1.7,3.253-.359.678-.733,1.348-1.113,2.014C549.072,239.888,548.482,240.894,547.9,241.9Z" transform="translate(-216.499 -8.246)" fill="#131313"/>
      <path id="Caminho_3713" data-name="Caminho 3713" d="M285.883,229.056c.194-.832.416-1.659.577-2.5.331-1.727.619-3.463.948-5.191.187-.985.363-1.979.646-2.938.347-1.174.8-2.318,1.211-3.471.183-.51.4-1.009.574-1.521a.331.331,0,0,0-.11-.3.358.358,0,0,0-.328.067c-.634.664-1.27,1.328-1.871,2.021-.789.911-1.556,1.841-2.316,2.776-.724.89-1.431,1.794-2.137,2.7-.512.657-1.031,1.311-1.512,1.99-.531.751-1.007,1.541-1.535,2.293a12.08,12.08,0,0,0-1.429,1.974,5.372,5.372,0,0,1-1.318,1.672c-.733.742-.273,1.615-.011,2.29a17.533,17.533,0,0,1,1.014,6.327,10.026,10.026,0,0,1-.972,4.409c-.905,1.91-2.134,3.73-4.472,4.185-1.9.369-4.021-.292-4.014-2.851a12.291,12.291,0,0,1,.486-3.064,11.332,11.332,0,0,1,1.638-4.152c.329-.435.457-1.018.749-1.488a2.358,2.358,0,0,0,.045-2.321c-.566-1.358-1.055-2.751-1.671-4.084a18.775,18.775,0,0,0-1.463-2.407.61.61,0,0,0-.531-.044c-.633,1.159-1.227,2.339-1.84,3.509a4.481,4.481,0,0,1-.37.511c-1.612,2.232-3.092,4.578-4.881,6.657a24.951,24.951,0,0,1-4.552,3.927,16.034,16.034,0,0,1-4,1.97c-2.238.776-4.6,1.353-6.94.659a8.992,8.992,0,0,1-6.57-9.136c.222-1.67.264-3.42,1.257-4.921.665-1.005,1.18-2.116,1.888-3.087a8.406,8.406,0,0,1,2.946-2.611,16.377,16.377,0,0,1,4.184-1.445,25.04,25.04,0,0,1,4.648-.283,6.078,6.078,0,0,1,2.094.483.972.972,0,0,1,.339.869c-.057.246-.428.5-.713.6a45.08,45.08,0,0,0-4.4,1.549,7.037,7.037,0,0,0-2.131,1.956,13.321,13.321,0,0,0-1.918,2.861,9.656,9.656,0,0,0-.735,3.069,11.317,11.317,0,0,0,.154,3.04,4.884,4.884,0,0,0,3.38,4.1,4.814,4.814,0,0,0,3.654-.346,19.628,19.628,0,0,0,4.142-2.54,21.168,21.168,0,0,0,4.413-5c.621-1.1,1.446-2.081,2.105-3.16.506-.828.889-1.73,1.345-2.589.262-.494.584-.957.834-1.455.165-.33.164-.774.389-1.039.863-1.019-.059-1.833-.3-2.684a24.168,24.168,0,0,0-1.081-2.179,49.881,49.881,0,0,1-1.856-5,13.335,13.335,0,0,1-.272-3.26,11.852,11.852,0,0,1,.142-2.494,8.309,8.309,0,0,1,1.775-3.857,5.831,5.831,0,0,1,4.236-2.125,2.974,2.974,0,0,1,3.051,2.579,21.055,21.055,0,0,1,.429,3.56,19.624,19.624,0,0,1-.56,3.48c-.28,1.388-.611,2.764-.926,4.145a4.353,4.353,0,0,0-.3,1.34,6.506,6.506,0,0,0,.578,2.057c.633,1.291,1.408,2.512,2.066,3.792.58,1.129,1.076,2.3,1.618,3.451a3,3,0,0,0,.451.751c.057.063.412-.017.5-.131.979-1.3,1.917-2.63,2.9-3.929,1.718-2.281,3.426-4.569,5.2-6.808.97-1.226,2.043-2.373,3.1-3.529,1.542-1.69,3.086-3.378,4.671-5.028a55,55,0,0,1,4-3.936c1.677-1.422,3.753-1.361,5.811-1.149a2.967,2.967,0,0,1,.631.044c.384.131,1.013.258,1.065.491a1.75,1.75,0,0,1-.352,1.286c-1.174,1.487-2.475,2.877-3.617,4.387a20.553,20.553,0,0,0-1.466,2.684c-.509.94-1.079,1.851-1.526,2.82-.5,1.09-.914,2.224-1.333,3.35a31.243,31.243,0,0,0-1.195,3.449c-.416,1.705-.684,3.447-1.005,5.175-.267,1.435-.562,2.867-.769,4.311-.242,1.689-.441,3.386-.586,5.085a31.612,31.612,0,0,0-.141,3.961,27.823,27.823,0,0,0,.484,4.82,42.97,42.97,0,0,0,1.543,4.483,3.682,3.682,0,0,0,1.612,2.154c.626.355,1.331.569,1.989.871.228.1.58.272.594.435.026.293-.083.8-.273.874a8.506,8.506,0,0,1-2.092.552,7.864,7.864,0,0,1-4.358-1.033,9.843,9.843,0,0,1-2.777-2.647,7.888,7.888,0,0,1-1.333-2.272,27.788,27.788,0,0,1-1.12-3.778,22.466,22.466,0,0,1-.586-3.753c-.089-1.662-.025-3.334.034-5s.182-3.322.307-4.981a9.78,9.78,0,0,1,.267-1.292Z" transform="translate(-72.641 0)" fill="#131313"/>
      <path id="Caminho_3714" data-name="Caminho 3714" d="M148.68,255.38a10.827,10.827,0,0,1-4.6-1.532,8.745,8.745,0,0,1-2.957-3.345,9.038,9.038,0,0,1-.875-5.257c.275-2.268.634-4.533,1.1-6.768a32.363,32.363,0,0,1,1.294-4.035c.6-1.718,1.24-3.427,1.889-5.13.456-1.195.96-2.371,1.438-3.558.27-.669-.2-.972-.683-1.11-1.108-.316-2.246-.529-3.364-.813-.574-.146-1.125-.394-1.7-.509a.8.8,0,0,0-.62.338c-1.434,2.138-2.773,4.343-4.283,6.425a23.2,23.2,0,0,1-3.473,3.952,12.227,12.227,0,0,1-5,2.859,29.226,29.226,0,0,1-3.773.2,5.353,5.353,0,0,1-3.282-1.1,5.822,5.822,0,0,1-2.3-2.787,11.278,11.278,0,0,1-.3-8.553c.5-1.429,1.077-2.837,1.714-4.211a4.876,4.876,0,0,1,1.115-1.26,11.4,11.4,0,0,1,5.845-3.211,7.868,7.868,0,0,1,5.974.745,4.158,4.158,0,0,1,1.743,2.383,1.22,1.22,0,0,0,1.147.951,16.73,16.73,0,0,1,3.048.8c.93.323,1.4.12,1.931-.919.632-1.228,1.356-2.408,1.991-3.634.58-1.121,1.054-2.3,1.651-3.409a15.564,15.564,0,0,1,1.516-2.33c.89-1.119,1.837-2.2,2.814-3.242a7.573,7.573,0,0,1,4.124-2.192,6.615,6.615,0,0,1,2.834.021,2.7,2.7,0,0,1,1.93,2.714,19.12,19.12,0,0,1-.173,3.5,37.243,37.243,0,0,1-.877,3.732c-.351,1.355-.691,2.715-1.12,4.046-.45,1.4-.956,2.779-1.523,4.132-.444,1.059-.109,1.637,1.185,1.717a29.428,29.428,0,0,0,2.952.052,1.767,1.767,0,0,0,.99-.435c.428-.367.928-.75,1.279-.171.213.352.136,1.29-.119,1.44a6.42,6.42,0,0,1-2.652.966,22.429,22.429,0,0,1-3.727-.294c-.937-.092-1.235.152-1.541,1.064-.386,1.15-.863,2.269-1.275,3.411-.451,1.25-.875,2.51-1.306,3.767-.476,1.386-.99,2.762-1.4,4.167a15.954,15.954,0,0,0-.616,2.978,34.266,34.266,0,0,0-.215,4.934,17.3,17.3,0,0,0,.766,3.669,3.787,3.787,0,0,0,2.151,2.654,17.823,17.823,0,0,0,2.467.466c.254.062.443.391.662.6-.219.215-.409.569-.661.621C150.708,255.1,149.583,255.239,148.68,255.38Zm-26.489-24.672.13.005c.048.422.1.843.143,1.265.187,1.709,2.085,3.443,3.591,3.2a7.889,7.889,0,0,0,4.482-2.258c1.132-1.159,2.127-2.451,3.187-3.682a36.557,36.557,0,0,0,4.062-5.968c.283-.5.124-.648-.357-.747-.933-.19-1.871-.374-2.788-.628-.832-.231-1.159-.107-1.42.683a.938.938,0,0,1-.187.312,5.908,5.908,0,0,1-3.321,1.992,2.938,2.938,0,0,1-2.529-.895,2.881,2.881,0,0,1,.8-3.143,6.847,6.847,0,0,1,3.438-1.378c.111-.011.3-.365.285-.378-.588-.54-.948-1.37-1.924-1.416a5.33,5.33,0,0,0-4.983,2.6,33.064,33.064,0,0,0-1.538,3.14,14.629,14.629,0,0,0-1.048,4.831A18.616,18.616,0,0,0,122.191,230.708Zm23.829-7.663c.667-.121,1.122-.088,1.35-.938.413-1.543,1.139-3,1.623-4.528.6-1.906,1.14-3.837,1.616-5.779a21.012,21.012,0,0,0,.5-3.365c.022-.284-.333-.664-.61-.877a.774.774,0,0,0-.728.136,32.9,32.9,0,0,0-2.94,3.231,41.75,41.75,0,0,0-2.413,3.977c-1.07,1.856-2.127,3.72-3.143,5.606-.177.329-.632.877.059,1.152a14.751,14.751,0,0,0,2.038.534c.5.12,1.017.182,1.507.334A9.533,9.533,0,0,1,146.02,223.045Z" transform="translate(0 -1.788)" fill="#131313"/>
      <path id="Caminho_3715" data-name="Caminho 3715" d="M433.365,237.333c.966,0,1.936.052,2.9-.013,1.139-.078,2.277-.223,3.4-.406a9.759,9.759,0,0,0,2.243-.583c.431-.183.721-.678,1.1-1,.229-.194.549-.491.76-.443a1.222,1.222,0,0,1,.81.64c.36,1.157.112,1.561-.993,2.107a15.839,15.839,0,0,1-5.517,1.543c-2.182.214-4.377.3-6.568.416a2.067,2.067,0,0,0-1.6,1.745,10.2,10.2,0,0,1-.594,1.733c-.327.744-.755,1.444-1.072,2.191s-.528,1.528-.821,2.281c-.391,1.007-.876,1.981-1.211,3.006-.411,1.257-.737,2.545-1.042,3.833a10.3,10.3,0,0,1-.5,2.527c-.243.442-1.14.668-1.764.714a2.786,2.786,0,0,1-1.716-.491,2.977,2.977,0,0,1-1.016-2.244c-.2-1.59.391-2.979.653-4.444a21.688,21.688,0,0,1,.928-2.866c.359-1.093.7-2.193,1.068-3.283s.774-2.18,1.155-3.273a10.491,10.491,0,0,0,.339-1.159c.014-.064-.175-.254-.258-.247-1.536.133-3.083.215-4.6.467a6.305,6.305,0,0,0-2.385.917c-.463.306-.658,1.013-.984,1.533-.134.215-.325.6-.439.582a1.4,1.4,0,0,1-.81-.441c-.675-.819-.348-1.712-.211-2.644.337-2.274,2.049-2.846,3.858-3.275a21.367,21.367,0,0,1,3.54-.527,25.625,25.625,0,0,1,2.607.189c.691.028,1.024-.385,1.229-1.041.355-1.131.824-2.225,1.217-3.345.211-.6.38-1.222.537-1.842.227-.9.446-1.793.629-2.7a15.393,15.393,0,0,0,.557-3.323c-.024-1.005.669-1.031,1.173-1.124a6.557,6.557,0,0,1,2.174.062c1.807.289,2.506,1.343,2.2,3.133-.13.752-.152,1.523-.3,2.27-.245,1.214-.539,2.419-.845,3.62-.215.843-.486,1.672-.73,2.508a9.735,9.735,0,0,1-.537,1.768c-.339.653.022.752.487.817a6.869,6.869,0,0,0,.951.009Z" transform="translate(-176.806 -12.473)" fill="#131313"/>
      <path id="Caminho_3716" data-name="Caminho 3716" d="M410.117,221.922a4.74,4.74,0,0,1-3.649-1.209,4.018,4.018,0,0,1-1.6-3.551,21.46,21.46,0,0,1,.535-3.484,12.365,12.365,0,0,1,1.183-2.553c1.284-2.373,3.452-3.734,5.785-4.846a6.768,6.768,0,0,1,2.346-.531,30.071,30.071,0,0,1,4.419-.123c1.676.117,3.339.45,5,.72,1.91.31,3.816.636,5.718.991.81.152,1.6.426,2.406.588,1.594.319,3.193.611,4.794.888,1.247.216,2.5.418,3.753.578a11.569,11.569,0,0,0,2.294.129c1.167-.085,2.329-.272,3.485-.462a3.6,3.6,0,0,0,3-2.191,1.1,1.1,0,0,0,.1-.5c-.062-.6.346-.7.731-.563a14.279,14.279,0,0,1,2.753,1.155c1.421.87,1.807,2.8,1.069,4.662a3.667,3.667,0,0,1-3.073,2.166,15.626,15.626,0,0,1-6.374-.5c-2.2-.465-4.409-.869-6.6-1.346-2.28-.5-4.544-1.062-6.821-1.571-2.055-.459-4.111-.923-6.179-1.312-2.441-.459-4.887-.919-7.349-1.229a6.5,6.5,0,0,0-5.92,2.35,4.313,4.313,0,0,0-1.059,3.63,4.2,4.2,0,0,0,2.959,3.311,12.737,12.737,0,0,0,1.938.273c.145.027.381.327.349.427a3.991,3.991,0,0,1-1.908,2.386c-.917.5-1.8,1.074-2.735,1.523A4.522,4.522,0,0,1,410.117,221.922Z" transform="translate(-171.127 -2.15)" fill="#131313"/>
      <path id="Caminho_3717" data-name="Caminho 3717" d="M213.109,273.29c.077-.191.226-.633.43-1.047a6.166,6.166,0,0,1,.906-1.583,1.8,1.8,0,0,1,1.261-.42,2.824,2.824,0,0,1,2.178,1.85c.413,1.041-.42,1.659-.643,2.478a2.679,2.679,0,0,1-.472,1.065,1.219,1.219,0,0,1-.917.42C214.5,275.811,213.149,275.448,213.109,273.29Z" transform="translate(-57.336 -40.52)" fill="#131313"/>
    </g>
    <text id="Desde_1996" data-name="Desde 1996" transform="translate(228 109)" fill="#12b118" font-size="16" font-family="Helvetica"><tspan x="0" y="0">Desde 1996</tspan></text>
  </g>
</svg>
