<svg xmlns="http://www.w3.org/2000/svg" width="350" height="250" viewBox="0 0 350 250">
  <g id="Grupo_1591" data-name="Grupo 1591" transform="translate(8 501)">
    <rect id="Retângulo_1027" data-name="Retângulo 1027" width="350" height="250" transform="translate(-8 -501)" fill="#fff"/>
    <g id="top_search" data-name="top search" transform="translate(27.839 -416.255)">
      <g id="Grupo_1573" data-name="Grupo 1573">
        <g id="Grupo_972" data-name="Grupo 972">
          <path id="Caminho_3712" data-name="Caminho 3712" d="M560.694,247.91c-.964,1.29-1.911,2.6-2.9,3.864a8.268,8.268,0,0,1-1.4,1.449c-1.069.831-2.023,1.821-3.487,2.068a3.173,3.173,0,0,1-3.428-1.959c-.2-.74-.312-1.507-.531-2.242a.8.8,0,0,0-.577-.29c-.409.436-.77.919-1.136,1.394a7.7,7.7,0,0,1-4.646,3.187,5.812,5.812,0,0,1-4.333-1.225c-1.773-1.218-2.352-3.64-2.62-6.024-.707.8-1.278,1.392-1.795,2.031a27.266,27.266,0,0,1-2.372,2.983,10.174,10.174,0,0,1-3.113,2.031c-2.157.843-3.9-.954-4.045-2.95-.051-.732-.018-1.469-.044-2.2a.477.477,0,0,0-.179-.363.429.429,0,0,0-.387.1c-.6.645-1.148,1.348-1.784,1.956-1.181,1.131-2.253,2.52-3.659,3.238-2.073,1.06-4.048.2-4.62-2.5a33.232,33.232,0,0,1-.356-3.311,5.986,5.986,0,0,0-.8.747,14.882,14.882,0,0,1-4.768,4.8,3.4,3.4,0,0,1-3.773.139,3.965,3.965,0,0,1-1.373-2.99,14.855,14.855,0,0,1,.033-1.843.721.721,0,0,0-.2-.539c-.107-.065-.413.043-.528.168a42.1,42.1,0,0,0-2.867,3.26c-1.313,1.78-3.647,2.784-5.474,2.188a2.789,2.789,0,0,1-1.739-2.364c-.055-.926-.3-1.846-.293-2.768a9.726,9.726,0,0,1,.429-1.915c.14-.652.2-1.325.386-1.964.343-1.2.685-2.405,1.138-3.566,1.038-2.66,2.147-5.294,3.215-7.943a4.635,4.635,0,0,0,.153-.838c-.211,0-.388-.006-.564,0-.978.04-1.959.142-2.935.108-1.235-.043-1.329,1.02-1.633,1.719-.776,1.785-1.3,3.681-2.087,5.46a48.1,48.1,0,0,1-2.46,4.573,17.906,17.906,0,0,1-3.923,4.948c-.2.163-.344.408-.563.512a11.472,11.472,0,0,1-1.234.442c.023-.561-.364-1.113.167-1.683a34.859,34.859,0,0,0,3.666-4.22,30.816,30.816,0,0,0,2.457-4.956c.8-1.851,1.49-3.75,2.182-5.645a3.3,3.3,0,0,0,.322-1.768c-.114-.439-.771-.736-1.186-1.1-1.259-1.1-2.124-4.618-.457-6.053a2.79,2.79,0,0,1,3.965.183,5.253,5.253,0,0,1,.692,2.315,10.993,10.993,0,0,1-.059,2.01c-.059,1.527.311,1.343,1.449,1.339a5.606,5.606,0,0,0,2.572-.767c1.9-1.062,2.988-.659,4.6.48a2.751,2.751,0,0,1,.8,1.829,6.78,6.78,0,0,1-.623,4.115,37.568,37.568,0,0,0-1.415,3.667c-.266.635-.7,1.2-1.027,1.81-.686,1.3-1.4,2.591-2.009,3.926-.71,1.544-1.345,3.123-1.961,4.708a.877.877,0,0,0,.229.806.976.976,0,0,0,.9.064,16.162,16.162,0,0,0,2.447-2.213,39.874,39.874,0,0,0,2.756-3.861c.965-1.5,1.891-3.028,2.727-4.6.617-1.161,1.068-2.412,1.582-3.627a36.058,36.058,0,0,0,1.362-3.366,11.317,11.317,0,0,0,.483-2.924c.034-1.036.779-1.224,1.441-1.272a3.4,3.4,0,0,1,2.97.843,3.95,3.95,0,0,1,1.01,3.986c-.611,2.05-1.343,4.069-2.13,6.06a33.313,33.313,0,0,1-1.614,3.09c-.594,1.136-1.209,2.261-1.755,3.419a30.373,30.373,0,0,0-1.358,3.28c-.125.376.1.87.168,1.31.523-.146,1.215-.13,1.538-.468a30.173,30.173,0,0,0,3.4-4c1.372-2.058,2.534-4.259,3.759-6.413a21.445,21.445,0,0,0,1.466-2.857c.761-1.985,1.427-4.006,2.094-6.025.179-.541.023-1.347.363-1.651,1.251-1.12,3.9-.233,4.587,1.288.984,2.181.157,4.11-.639,6.044-.742,1.8-1.576,3.566-2.417,5.324-.984,2.059-2.04,4.084-3.017,6.146a4.5,4.5,0,0,0-.483,1.8c0,.286.519.794.828.813a1.749,1.749,0,0,0,1.224-.548c.7-.769,1.3-1.638,1.931-2.469.406-.531.85-1.038,1.2-1.6q1.43-2.3,2.79-4.653a30.488,30.488,0,0,0,1.452-2.8c.543-1.218,1-2.475,1.5-3.712.668-1.658,1.364-3.3,2.006-4.973.7-1.829,1.38-3.669,2-5.526.063-.186-.316-.746-.514-.758a28.292,28.292,0,0,0-8.771.673,3.072,3.072,0,0,0-2.28,2.612.864.864,0,0,1-.55.6.9.9,0,0,1-1.076-.516,4.784,4.784,0,0,1-.237-4.19c.69-1.841,2.37-2.535,4.142-2.7,2.371-.224,4.765-.223,7.149-.255.966-.013,1.935.209,2.9.182a1.449,1.449,0,0,0,.954-.709,11.779,11.779,0,0,0,1.2-4.642c.028-.239.489-.5.8-.621,1.255-.488,3.577-.06,4.224,1.056a6.845,6.845,0,0,1,.445,2.87,8.216,8.216,0,0,1-.236,1.5c-.114.9.265,1.219,1.222,1.169,1.322-.07,2.664.026,3.965-.167,1.857-.276,3.692-.722,5.519-1.165a1.56,1.56,0,0,0,.809-.767c.4-.73.9-.95,1.6-.47a1.253,1.253,0,0,1,.339,2.031,6.456,6.456,0,0,1-3.361,1.786c-2.024.452-4.056.876-6.1,1.219a24.9,24.9,0,0,1-3.481.274,2.229,2.229,0,0,0-2.461,1.649,28.079,28.079,0,0,1-1.379,2.762c-.259.591-.3,1.275-.531,1.881-.361.94-.793,1.854-1.213,2.77-.446.973-.926,1.93-1.367,2.906-.727,1.61-1.453,3.222-2.145,4.848-1.05,2.467-2.108,4.932-3.079,7.431a8,8,0,0,0-.329,2.252c-.02.248.108.669.275.733a1.008,1.008,0,0,0,.876-.123,13.275,13.275,0,0,0,1.979-2.03,55.913,55.913,0,0,0,3.1-4.731,52.48,52.48,0,0,0,2.935-5.709,16.162,16.162,0,0,1,5.946-7.566,8.779,8.779,0,0,1,7.318-1.326,3.047,3.047,0,0,1,1.828,4.454c-.482.639-1.67.858-2.07.245-.31-.475-.162-1.262-.177-1.911a3.242,3.242,0,0,1,.158-.745c-.327-.05-.759-.259-.963-.124-.779.516-1.489,1.139-2.218,1.73a7.179,7.179,0,0,0-2.018,2.752c-.494,1.108-1.23,2.106-1.78,3.193-.485.958-.794,2.005-1.294,2.953a11.758,11.758,0,0,0-.975,5.064,9.452,9.452,0,0,0,.575,3.23,1.53,1.53,0,0,0,1.184.839,2.548,2.548,0,0,0,1.67-.754,27.969,27.969,0,0,0,2.735-3.758c1.05-1.762,1.957-3.613,2.886-5.444,1.1-2.16,2.259-4.3,3.185-6.527a36.818,36.818,0,0,0,1.177-4.465.973.973,0,0,1,.523-.624,5.453,5.453,0,0,1,2.053-.3,3.575,3.575,0,0,1,2.748,4.909c-1.127,2.947-2.409,5.84-3.716,8.714-.87,1.911-1.917,3.74-2.843,5.626a4.255,4.255,0,0,0-.371,1.46c-.027.285.094.764.284.848a1.148,1.148,0,0,0,1.015-.08,19.776,19.776,0,0,0,2.481-2.441,49.3,49.3,0,0,0,3.206-4.422c.934-1.466,1.7-3.037,2.533-4.569.623-1.152,1.216-2.32,1.837-3.474a17.859,17.859,0,0,0,1.418-2.662,2.99,2.99,0,0,0-.349-1.748c-.995-2.542-.034-5.665,2.76-6.182a4.7,4.7,0,0,1,2.221.348c.729.247.989,1.91.568,2.731a18.011,18.011,0,0,0-1.062,2.383,1.492,1.492,0,0,0,.214,1.042,75.492,75.492,0,0,1,3.865,6.942c.624,1.459.483,3.244.7,4.88a3.165,3.165,0,0,0,.261.682c.19-.1.447-.157.561-.314,1.027-1.421,2.027-2.862,3.038-4.294a7,7,0,0,1,1.027-1.354c.24-.2.723-.122,1.1-.168.021.492.239,1.1.031,1.458a51.235,51.235,0,0,1-3.037,4.766,46.123,46.123,0,0,1-3.7,4.448,16.456,16.456,0,0,1-7.551,4.755,4.391,4.391,0,0,1-4.421-.785,7.083,7.083,0,0,1-1.423-3.4,11.868,11.868,0,0,1,.127-3.027Zm.545-.788.153.124c.17-.117.335-.243.51-.35a14.775,14.775,0,0,1,1.84-1.092c.856-.365,2.116.057,2.3.782.108.428.027,1.227-.225,1.355a3.373,3.373,0,0,1-1.934.307c-.48-.073-.755-.2-.995.325a4.23,4.23,0,0,0,.134,3.992,2.009,2.009,0,0,0,2.444.782,7.22,7.22,0,0,0,3.325-3.762c1.086-2.372.762-4.945.439-7.414a23.726,23.726,0,0,0-1.434-4.556,1.864,1.864,0,0,0-.638-.7c-.049-.04-.363.121-.433.253-.695,1.294-1.356,2.606-2.043,3.9-.43.814-.88,1.619-1.336,2.418C562.649,244.7,561.941,245.91,561.239,247.122Z" transform="translate(-303.282 -209.076)" fill="#131313"/>
          <path id="Caminho_3713" data-name="Caminho 3713" d="M295.3,234.484c.233-1,.5-1.992.692-3,.4-2.074.743-4.157,1.137-6.231.225-1.182.435-2.375.775-3.527.416-1.409.956-2.782,1.453-4.166.22-.612.477-1.211.689-1.826a.4.4,0,0,0-.132-.365.429.429,0,0,0-.393.081c-.761.8-1.524,1.594-2.246,2.426-.947,1.093-1.868,2.21-2.78,3.332-.869,1.069-1.717,2.154-2.565,3.24-.615.789-1.237,1.573-1.814,2.389-.637.9-1.208,1.85-1.843,2.752a14.5,14.5,0,0,0-1.715,2.37,6.449,6.449,0,0,1-1.582,2.008c-.88.89-.328,1.939-.013,2.749a21.046,21.046,0,0,1,1.217,7.6,12.035,12.035,0,0,1-1.166,5.292c-1.087,2.293-2.562,4.477-5.368,5.023-2.278.443-4.827-.351-4.818-3.422a14.754,14.754,0,0,1,.583-3.678,13.6,13.6,0,0,1,1.967-4.984c.4-.523.549-1.221.9-1.786a2.831,2.831,0,0,0,.054-2.786c-.68-1.63-1.266-3.3-2.006-4.9a22.531,22.531,0,0,0-1.756-2.889.732.732,0,0,0-.637-.053c-.76,1.391-1.473,2.807-2.209,4.212a5.378,5.378,0,0,1-.444.614c-1.935,2.679-3.711,5.5-5.859,7.991a29.948,29.948,0,0,1-5.464,4.714,19.246,19.246,0,0,1-4.8,2.364c-2.686.932-5.519,1.624-8.33.791-3.7-1.1-6.451-3.383-7.446-7.3a10.049,10.049,0,0,1-.44-3.669c.267-2.005.317-4.105,1.508-5.907.8-1.207,1.416-2.539,2.267-3.705a10.09,10.09,0,0,1,3.536-3.134,19.657,19.657,0,0,1,5.022-1.735,30.054,30.054,0,0,1,5.579-.34,7.3,7.3,0,0,1,2.514.58,1.167,1.167,0,0,1,.407,1.043c-.068.295-.513.595-.855.718a54.11,54.11,0,0,0-5.285,1.859,8.446,8.446,0,0,0-2.558,2.348,15.99,15.99,0,0,0-2.3,3.434,11.59,11.59,0,0,0-.883,3.684,13.583,13.583,0,0,0,.184,3.649,5.863,5.863,0,0,0,4.057,4.919,5.779,5.779,0,0,0,4.387-.416,23.561,23.561,0,0,0,4.972-3.048,25.41,25.41,0,0,0,5.3-6c.745-1.319,1.735-2.5,2.527-3.793.608-.994,1.067-2.076,1.615-3.108.314-.593.7-1.148,1-1.747.2-.4.2-.929.466-1.247,1.036-1.223-.07-2.2-.363-3.222a29.01,29.01,0,0,0-1.3-2.616,59.881,59.881,0,0,1-2.228-6.006,16.008,16.008,0,0,1-.326-3.913,14.223,14.223,0,0,1,.17-2.994,9.973,9.973,0,0,1,2.131-4.63,7,7,0,0,1,5.085-2.551,3.57,3.57,0,0,1,3.662,3.1,25.275,25.275,0,0,1,.515,4.274,23.554,23.554,0,0,1-.672,4.178c-.336,1.665-.733,3.318-1.111,4.975a5.225,5.225,0,0,0-.366,1.608,7.809,7.809,0,0,0,.694,2.469c.759,1.55,1.69,3.015,2.48,4.551.7,1.356,1.292,2.763,1.942,4.143a3.606,3.606,0,0,0,.541.9c.068.075.494-.021.6-.158,1.175-1.56,2.3-3.156,3.475-4.716,2.062-2.738,4.113-5.485,6.238-8.172,1.164-1.472,2.452-2.848,3.718-4.236,1.85-2.029,3.7-4.055,5.607-6.035a66.013,66.013,0,0,1,4.8-4.724c2.013-1.707,4.505-1.634,6.975-1.38a3.562,3.562,0,0,1,.757.053c.461.157,1.216.309,1.278.59a2.1,2.1,0,0,1-.423,1.543c-1.41,1.785-2.971,3.453-4.341,5.266a24.673,24.673,0,0,0-1.759,3.222c-.611,1.129-1.3,2.222-1.831,3.385-.6,1.308-1.1,2.669-1.6,4.021a37.5,37.5,0,0,0-1.434,4.14c-.5,2.047-.821,4.138-1.207,6.212-.321,1.723-.674,3.442-.923,5.175-.291,2.027-.529,4.064-.7,6.1a37.938,37.938,0,0,0-.17,4.754,33.4,33.4,0,0,0,.581,5.785,51.576,51.576,0,0,0,1.852,5.381,4.419,4.419,0,0,0,1.934,2.585c.752.426,1.6.683,2.387,1.045.273.126.7.326.713.523.031.352-.1.957-.327,1.049a10.212,10.212,0,0,1-2.511.662A9.439,9.439,0,0,1,301.71,263a11.814,11.814,0,0,1-3.333-3.178,9.468,9.468,0,0,1-1.6-2.727,33.356,33.356,0,0,1-1.344-4.535,26.972,26.972,0,0,1-.7-4.505c-.106-1.994-.03-4,.041-6s.219-3.988.368-5.979a11.737,11.737,0,0,1,.321-1.551Z" transform="translate(-179.168 -201.961)" fill="#131313"/>
          <path id="Caminho_3714" data-name="Caminho 3714" d="M155.128,265.479a13,13,0,0,1-5.518-1.839,10.5,10.5,0,0,1-3.55-4.015,10.848,10.848,0,0,1-1.051-6.31c.33-2.723.761-5.441,1.324-8.124a38.849,38.849,0,0,1,1.554-4.844c.726-2.063,1.488-4.114,2.268-6.157.547-1.434,1.152-2.846,1.726-4.271.324-.8-.238-1.167-.82-1.333-1.33-.38-2.7-.635-4.038-.976-.69-.175-1.35-.473-2.045-.611a.959.959,0,0,0-.744.406c-1.722,2.566-3.329,5.213-5.141,7.713a27.848,27.848,0,0,1-4.168,4.743,14.677,14.677,0,0,1-6,3.432c-1.443.348-3.025.08-4.53.235-1.546.16-2.757-.634-3.939-1.323a6.988,6.988,0,0,1-2.765-3.346,13.538,13.538,0,0,1-.36-10.266c.6-1.715,1.293-3.405,2.058-5.054a5.854,5.854,0,0,1,1.339-1.512,13.686,13.686,0,0,1,7.016-3.855c2.454-.47,4.933-.54,7.17.894a4.991,4.991,0,0,1,2.092,2.861,1.465,1.465,0,0,0,1.377,1.141,20.087,20.087,0,0,1,3.658.955c1.117.388,1.675.144,2.317-1.1.758-1.474,1.627-2.89,2.39-4.363.7-1.345,1.265-2.758,1.982-4.092a18.684,18.684,0,0,1,1.82-2.8c1.068-1.343,2.2-2.637,3.377-3.891a9.09,9.09,0,0,1,4.95-2.632,7.94,7.94,0,0,1,3.4.025,3.24,3.24,0,0,1,2.317,3.257,22.949,22.949,0,0,1-.208,4.2,44.694,44.694,0,0,1-1.053,4.48c-.421,1.626-.829,3.259-1.345,4.857-.541,1.676-1.147,3.336-1.828,4.96-.533,1.271-.13,1.965,1.423,2.061a35.313,35.313,0,0,0,3.543.062,2.121,2.121,0,0,0,1.189-.523c.514-.441,1.114-.9,1.535-.2.256.422.163,1.549-.143,1.728a7.706,7.706,0,0,1-3.183,1.16,26.921,26.921,0,0,1-4.473-.352c-1.124-.11-1.482.182-1.85,1.277-.463,1.38-1.036,2.724-1.53,4.095-.542,1.5-1.051,3.012-1.568,4.522-.571,1.664-1.188,3.315-1.685,5a19.153,19.153,0,0,0-.739,3.575,41.13,41.13,0,0,0-.259,5.922,20.77,20.77,0,0,0,.919,4.4,4.546,4.546,0,0,0,2.582,3.186,21.393,21.393,0,0,0,2.961.559c.3.074.532.469.794.717-.263.258-.49.683-.793.746C157.563,265.138,156.211,265.31,155.128,265.479Zm-31.8-29.616.156.006c.057.506.116,1.012.171,1.519.224,2.051,2.5,4.132,4.31,3.843a9.469,9.469,0,0,0,5.38-2.71c1.359-1.391,2.554-2.943,3.825-4.419a43.882,43.882,0,0,0,4.875-7.164c.339-.6.149-.778-.429-.9-1.12-.228-2.246-.448-3.347-.754-1-.277-1.391-.128-1.705.82a1.125,1.125,0,0,1-.225.375,7.093,7.093,0,0,1-3.986,2.391,3.527,3.527,0,0,1-3.035-1.074,3.458,3.458,0,0,1,.958-3.772,8.219,8.219,0,0,1,4.127-1.654c.134-.013.359-.438.342-.454-.706-.648-1.138-1.645-2.31-1.7a6.4,6.4,0,0,0-5.982,3.127,39.687,39.687,0,0,0-1.846,3.769c-.922,1.827-1,3.838-1.258,5.8A22.346,22.346,0,0,0,123.332,235.864Zm28.6-9.2c.8-.145,1.347-.105,1.621-1.126.5-1.852,1.367-3.6,1.948-5.435.725-2.288,1.368-4.606,1.94-6.937a25.224,25.224,0,0,0,.6-4.039c.026-.341-.4-.8-.732-1.053a.929.929,0,0,0-.874.164,39.5,39.5,0,0,0-3.529,3.878,50.119,50.119,0,0,0-2.9,4.773c-1.284,2.228-2.554,4.465-3.772,6.729-.213.4-.759,1.053.071,1.383a17.709,17.709,0,0,0,2.446.641c.6.143,1.221.219,1.809.4A11.446,11.446,0,0,1,151.935,226.666Z" transform="translate(-116.497 -203.504)" fill="#131313"/>
          <path id="Caminho_3715" data-name="Caminho 3715" d="M437.161,240.209c1.16,0,2.324.063,3.479-.016,1.367-.094,2.733-.267,4.087-.488a11.712,11.712,0,0,0,2.693-.7c.517-.22.866-.813,1.323-1.2.275-.232.659-.59.912-.532a1.467,1.467,0,0,1,.973.769c.432,1.389.135,1.873-1.192,2.53a19.012,19.012,0,0,1-6.622,1.852c-2.619.257-5.254.36-7.883.5a2.481,2.481,0,0,0-1.919,2.094,12.24,12.24,0,0,1-.713,2.08c-.392.893-.907,1.733-1.287,2.63s-.634,1.834-.985,2.738c-.469,1.209-1.052,2.378-1.454,3.608-.493,1.509-.885,3.054-1.251,4.6-.239,1.011-.132,2.173-.6,3.033-.292.531-1.369.8-2.118.857a3.344,3.344,0,0,1-2.06-.589,3.574,3.574,0,0,1-1.22-2.693c-.243-1.909.469-3.576.783-5.335a26.033,26.033,0,0,1,1.114-3.44c.431-1.312.838-2.633,1.281-3.94s.93-2.617,1.386-3.929a12.6,12.6,0,0,0,.407-1.391c.017-.077-.21-.305-.31-.3-1.844.16-3.7.258-5.523.561a7.568,7.568,0,0,0-2.863,1.1c-.555.367-.79,1.216-1.181,1.84-.161.258-.39.72-.527.7a1.684,1.684,0,0,1-.972-.53c-.81-.983-.418-2.055-.253-3.173.4-2.729,2.459-3.416,4.631-3.932a25.647,25.647,0,0,1,4.249-.632,30.751,30.751,0,0,1,3.129.226c.829.033,1.229-.463,1.475-1.249.426-1.358.99-2.671,1.461-4.015.254-.724.457-1.467.645-2.211.272-1.075.535-2.153.755-3.239a18.476,18.476,0,0,0,.668-3.988c-.029-1.207.8-1.238,1.408-1.349a7.872,7.872,0,0,1,2.61.075c2.17.346,3.009,1.612,2.637,3.761-.157.9-.182,1.829-.364,2.724-.294,1.457-.647,2.9-1.014,4.346-.258,1.012-.583,2.007-.876,3.01a11.688,11.688,0,0,1-.644,2.122c-.407.784.027.9.584.98a8.242,8.242,0,0,0,1.142.01Z" transform="translate(-269.037 -212.722)" fill="#131313"/>
          <path id="Caminho_3716" data-name="Caminho 3716" d="M411.172,225.195a5.69,5.69,0,0,1-4.38-1.451,4.823,4.823,0,0,1-1.919-4.263,25.757,25.757,0,0,1,.643-4.182,14.84,14.84,0,0,1,1.42-3.065c1.541-2.848,4.144-4.482,6.944-5.816a8.122,8.122,0,0,1,2.817-.638,36.094,36.094,0,0,1,5.3-.148c2.012.14,4.007.54,6,.864,2.292.372,4.581.764,6.863,1.19.973.182,1.917.512,2.888.706,1.913.383,3.833.733,5.755,1.066,1.5.259,3,.5,4.505.694a13.888,13.888,0,0,0,2.754.155c1.4-.1,2.8-.327,4.183-.555a4.321,4.321,0,0,0,3.6-2.63,1.319,1.319,0,0,0,.119-.6c-.075-.725.415-.838.877-.676a17.141,17.141,0,0,1,3.305,1.387c1.706,1.045,2.169,3.364,1.283,5.6-.662,1.669-2.052,2.275-3.689,2.6-2.616.519-5.125-.063-7.651-.6-2.638-.558-5.292-1.043-7.927-1.616-2.737-.6-5.455-1.275-8.188-1.886-2.467-.551-4.934-1.108-7.417-1.575-2.93-.55-5.866-1.1-8.822-1.475a7.8,7.8,0,0,0-7.106,2.821,5.178,5.178,0,0,0-1.271,4.357,5.039,5.039,0,0,0,3.552,3.975,15.29,15.29,0,0,0,2.326.327c.174.033.458.392.419.513a4.79,4.79,0,0,1-2.291,2.864c-1.1.6-2.155,1.289-3.283,1.829A5.428,5.428,0,0,1,411.172,225.195Z" transform="translate(-264.137 -203.816)" fill="#131313"/>
          <path id="Caminho_3717" data-name="Caminho 3717" d="M213.109,273.9c.092-.229.271-.759.516-1.257a7.4,7.4,0,0,1,1.087-1.9,2.162,2.162,0,0,1,1.514-.5,3.389,3.389,0,0,1,2.614,2.22c.5,1.249-.5,1.992-.771,2.974a3.217,3.217,0,0,1-.566,1.279,1.463,1.463,0,0,1-1.1.5C214.779,276.927,213.157,276.492,213.109,273.9Z" transform="translate(-165.963 -236.92)" fill="#131313"/>
        </g>
        <text id="Desde_1996" data-name="Desde 1996" transform="translate(173.359 76.287)" fill="#12b118" font-size="18" font-family="Helvetica"><tspan x="0" y="0">Desde 1996</tspan></text>
      </g>
    </g>
  </g>
</svg>
